<svg width="72" height="67" viewBox="0 0 72 67" fill="none" xmlns="http://www.w3.org/2000/svg">
<path d="M18.951 52.96C16.151 52.96 13.591 52.26 11.271 50.86C8.97102 49.46 7.14102 47.53 5.78102 45.07C4.44102 42.61 3.77102 39.8 3.77102 36.64C3.77102 33.5 4.43102 30.71 5.75102 28.27C7.09102 25.81 8.91102 23.87 11.211 22.45C13.531 21.03 16.171 20.32 19.131 20.32C21.491 20.32 23.661 20.82 25.641 21.82C27.621 22.82 29.221 24.21 30.441 25.99V0.369998H37.911V52H30.441V47.08C29.101 48.92 27.431 50.36 25.431 51.4C23.451 52.44 21.291 52.96 18.951 52.96ZM21.111 46.57C22.971 46.57 24.611 46.15 26.031 45.31C27.471 44.45 28.601 43.28 29.421 41.8C30.241 40.3 30.651 38.59 30.651 36.67C30.651 34.75 30.241 33.04 29.421 31.54C28.601 30.02 27.471 28.84 26.031 28C24.611 27.14 22.971 26.71 21.111 26.71C19.291 26.71 17.661 27.14 16.221 28C14.781 28.84 13.651 30.02 12.831 31.54C12.011 33.04 11.601 34.76 11.601 36.7C11.601 38.6 12.001 40.3 12.801 41.8C13.621 43.28 14.751 44.45 16.191 45.31C17.631 46.15 19.271 46.57 21.111 46.57Z" fill="#03061A"/>
<path d="M67.5211 38.1797C68.2444 38.443 68.4115 39.3906 67.8218 39.8855L50.5731 54.3589C49.9834 54.8537 49.0792 54.5246 48.9455 53.7665L45.0355 31.5919C44.9018 30.8338 45.639 30.2153 46.3623 30.4786L67.5211 38.1797Z" fill="url(#paint0_linear_5288_2897)"/>
<defs>
<linearGradient id="paint0_linear_5288_2897" x1="65.9858" y1="20.8345" x2="69.662" y2="60.1173" gradientUnits="userSpaceOnUse">
<stop stop-color="#F54785"/>
<stop offset="1" stop-color="#FF9900"/>
</linearGradient>
</defs>
</svg>
