<svg width="170" height="51" viewBox="0 0 170 51" fill="none" xmlns="http://www.w3.org/2000/svg">
<path d="M12.8336 50.8001C10.5003 50.8001 8.36693 50.2168 6.43359 49.0501C4.51693 47.8834 2.99193 46.2751 1.85859 44.2251C0.741927 42.1751 0.183594 39.8334 0.183594 37.2001C0.183594 34.5834 0.733594 32.2584 1.83359 30.2251C2.95026 28.1751 4.46693 26.5584 6.38359 25.3751C8.31693 24.1918 10.5169 23.6001 12.9836 23.6001C14.9503 23.6001 16.7586 24.0168 18.4086 24.8501C20.0586 25.6834 21.3919 26.8418 22.4086 28.3251V6.9751H28.6336V50.0001H22.4086V45.9001C21.2919 47.4334 19.9003 48.6334 18.2336 49.5001C16.5836 50.3668 14.7836 50.8001 12.8336 50.8001ZM14.6336 45.4751C16.1836 45.4751 17.5503 45.1251 18.7336 44.4251C19.9336 43.7084 20.8753 42.7334 21.5586 41.5001C22.2419 40.2501 22.5836 38.8251 22.5836 37.2251C22.5836 35.6251 22.2419 34.2001 21.5586 32.9501C20.8753 31.6834 19.9336 30.7001 18.7336 30.0001C17.5503 29.2834 16.1836 28.9251 14.6336 28.9251C13.1169 28.9251 11.7586 29.2834 10.5586 30.0001C9.35859 30.7001 8.41693 31.6834 7.73359 32.9501C7.05026 34.2001 6.70859 35.6334 6.70859 37.2501C6.70859 38.8334 7.04193 40.2501 7.70859 41.5001C8.39193 42.7334 9.33359 43.7084 10.5336 44.4251C11.7336 45.1251 13.1003 45.4751 14.6336 45.4751Z" fill="#03061A"/>
<path d="M38.5652 50.0001V24.4001H44.7902V50.0001H38.5652Z" fill="#03061A"/>
<path d="M61.8094 50.8001C59.6594 50.8001 57.7427 50.4001 56.0594 49.6001C54.3927 48.7834 53.0344 47.6168 51.9844 46.1001L54.7344 42.0501C55.7177 43.3501 56.8094 44.3584 58.0094 45.0751C59.226 45.7918 60.4844 46.1501 61.7844 46.1501C62.5844 46.1501 63.2927 46.0084 63.9094 45.7251C64.526 45.4251 65.0177 45.0001 65.3844 44.4501C65.751 43.8834 65.9344 43.2168 65.9344 42.4501C65.9344 41.6501 65.726 41.0251 65.3094 40.5751C64.8927 40.1251 64.2677 39.7168 63.4344 39.3501C62.601 38.9834 61.551 38.5501 60.2844 38.0501C59.2177 37.6001 58.201 37.1001 57.2344 36.5501C56.2677 36.0001 55.4677 35.3084 54.8344 34.4751C54.2177 33.6251 53.9094 32.5501 53.9094 31.2501C53.9094 29.7668 54.3177 28.4501 55.1344 27.3001C55.9677 26.1501 57.101 25.2501 58.5344 24.6001C59.9844 23.9501 61.6344 23.6251 63.4844 23.6251C64.8177 23.6251 66.1594 23.8668 67.5094 24.3501C68.8594 24.8168 70.2094 25.5001 71.5594 26.4001L69.3094 30.3251C67.3594 28.7084 65.4344 27.9001 63.5344 27.9001C62.4177 27.9001 61.5177 28.1668 60.8344 28.7001C60.1677 29.2334 59.8344 29.9168 59.8344 30.7501C59.8344 31.4334 60.126 32.0168 60.7094 32.5001C61.2927 32.9834 62.0177 33.4084 62.8844 33.7751C63.751 34.1418 64.6177 34.4918 65.4844 34.8251C66.851 35.3251 68.051 35.8584 69.0844 36.4251C70.1177 36.9918 70.926 37.7251 71.5094 38.6251C72.0927 39.5251 72.3844 40.7251 72.3844 42.2251C72.3844 44.0251 71.951 45.5668 71.0844 46.8501C70.2344 48.1334 69.0177 49.1168 67.4344 49.8001C65.851 50.4668 63.976 50.8001 61.8094 50.8001Z" fill="#03061A"/>
<path d="M92.3023 50.8001C90.369 50.8001 88.544 50.4584 86.8273 49.7751C85.1273 49.0751 83.6273 48.1084 82.3273 46.8751C81.0273 45.6418 80.0023 44.2001 79.2523 42.5501C78.519 40.9001 78.1523 39.1168 78.1523 37.2001C78.1523 35.3501 78.5023 33.6084 79.2023 31.9751C79.919 30.3251 80.9107 28.8751 82.1773 27.6251C83.4607 26.3751 84.9607 25.3918 86.6773 24.6751C88.4107 23.9584 90.2773 23.6001 92.2773 23.6001C93.944 23.6001 95.5357 23.8418 97.0523 24.3251C98.5857 24.8084 99.8523 25.4418 100.852 26.2251L98.6273 30.4251C97.1607 29.3084 95.3523 28.7501 93.2023 28.7501C91.4357 28.7501 89.9107 29.1418 88.6273 29.9251C87.344 30.6918 86.3607 31.7251 85.6773 33.0251C84.994 34.3084 84.6523 35.7001 84.6523 37.2001C84.6523 38.7834 85.0107 40.2168 85.7273 41.5001C86.444 42.7668 87.4523 43.7751 88.7523 44.5251C90.0524 45.2751 91.5523 45.6501 93.2523 45.6501C94.3023 45.6501 95.2857 45.5001 96.2023 45.2001C97.1357 44.9001 97.9357 44.4918 98.6023 43.9751L100.852 48.1751C99.8357 48.9418 98.5773 49.5668 97.0773 50.0501C95.5773 50.5501 93.9857 50.8001 92.3023 50.8001Z" fill="#03061A"/>
<path d="M107.825 50.0001V24.4001H114.05V50.0001H107.825ZM110.95 19.1501C110.266 19.1501 109.633 18.9834 109.05 18.6501C108.483 18.3001 108.025 17.8418 107.675 17.2751C107.341 16.6918 107.175 16.0501 107.175 15.3501C107.175 14.6668 107.341 14.0418 107.675 13.4751C108.025 12.9084 108.483 12.4584 109.05 12.1251C109.633 11.7751 110.266 11.6001 110.95 11.6001C111.65 11.6001 112.275 11.7751 112.825 12.1251C113.391 12.4584 113.841 12.9084 114.175 13.4751C114.525 14.0418 114.7 14.6668 114.7 15.3501C114.7 16.0501 114.525 16.6918 114.175 17.2751C113.841 17.8418 113.391 18.3001 112.825 18.6501C112.275 18.9834 111.65 19.1501 110.95 19.1501Z" fill="#03061A"/>
<path d="M131.969 50.8001C129.652 50.8001 127.844 50.0501 126.544 48.5501C125.26 47.0501 124.619 44.9418 124.619 42.2251V29.1251H121.494V24.4001H124.619V14.8251H130.844V24.4001H136.744V29.1251H130.844V41.8001C130.844 42.9168 131.069 43.7751 131.519 44.3751C131.969 44.9584 132.61 45.2501 133.444 45.2501C134.31 45.2501 135.102 44.9834 135.819 44.4501L137.394 49.4251C136.644 49.8584 135.785 50.1918 134.819 50.4251C133.852 50.6751 132.902 50.8001 131.969 50.8001Z" fill="#03061A"/>
<path d="M157.027 50.8001C154.293 50.8001 151.843 50.2084 149.677 49.0251C147.527 47.8418 145.818 46.2251 144.552 44.1751C143.302 42.1251 142.677 39.8168 142.677 37.2501C142.677 35.3501 143.035 33.5751 143.752 31.9251C144.468 30.2751 145.46 28.8251 146.727 27.5751C147.993 26.3251 149.468 25.3501 151.152 24.6501C152.835 23.9501 154.652 23.6001 156.602 23.6001C159.268 23.6001 161.602 24.1501 163.602 25.2501C165.618 26.3501 167.185 27.8834 168.302 29.8501C169.435 31.8168 170.002 34.1084 170.002 36.7251C170.002 36.9418 169.993 37.1251 169.977 37.2751C169.96 37.4084 169.927 37.6418 169.877 37.9751H149.027C149.027 39.5251 149.377 40.8918 150.077 42.0751C150.777 43.2418 151.752 44.1584 153.002 44.8251C154.268 45.4751 155.718 45.8001 157.352 45.8001C158.902 45.8001 160.277 45.4918 161.477 44.8751C162.693 44.2418 163.793 43.2834 164.777 42.0001L169.302 44.3251C168.085 46.3584 166.393 47.9501 164.227 49.1001C162.077 50.2334 159.677 50.8001 157.027 50.8001ZM149.302 34.0751H163.827C163.61 32.9084 163.168 31.9001 162.502 31.0501C161.835 30.2001 160.993 29.5418 159.977 29.0751C158.96 28.5918 157.827 28.3501 156.577 28.3501C155.26 28.3501 154.085 28.5834 153.052 29.0501C152.018 29.5168 151.177 30.1751 150.527 31.0251C149.877 31.8751 149.468 32.8918 149.302 34.0751Z" fill="#03061A"/>
<path d="M50.8052 9.25568C51.5286 9.51897 51.6956 10.4666 51.1059 10.9614L40.4913 19.8681C39.9016 20.363 38.9974 20.0339 38.8637 19.2757L36.4576 5.62985C36.3239 4.87175 37.061 4.25322 37.7844 4.51651L50.8052 9.25568Z" fill="url(#paint0_linear_5288_2894)"/>
<defs>
<linearGradient id="paint0_linear_5288_2894" x1="50.3242" y1="-2.1103" x2="52.775" y2="24.0782" gradientUnits="userSpaceOnUse">
<stop stop-color="#F54785"/>
<stop offset="1" stop-color="#FF9900"/>
</linearGradient>
</defs>
</svg>
