<svg width="170" height="51" viewBox="0 0 170 51" fill="none" xmlns="http://www.w3.org/2000/svg">
<path d="M12.65 50.8001C10.3167 50.8001 8.18333 50.2168 6.25 49.0501C4.33333 47.8834 2.80833 46.2751 1.675 44.2251C0.558333 42.1751 0 39.8334 0 37.2001C0 34.5834 0.55 32.2584 1.65 30.2251C2.76667 28.1751 4.28333 26.5584 6.2 25.3751C8.13333 24.1918 10.3333 23.6001 12.8 23.6001C14.7667 23.6001 16.575 24.0168 18.225 24.8501C19.875 25.6834 21.2083 26.8418 22.225 28.3251V6.9751H28.45V50.0001H22.225V45.9001C21.1083 47.4334 19.7167 48.6334 18.05 49.5001C16.4 50.3668 14.6 50.8001 12.65 50.8001ZM14.45 45.4751C16 45.4751 17.3667 45.1251 18.55 44.4251C19.75 43.7084 20.6917 42.7334 21.375 41.5001C22.0583 40.2501 22.4 38.8251 22.4 37.2251C22.4 35.6251 22.0583 34.2001 21.375 32.9501C20.6917 31.6834 19.75 30.7001 18.55 30.0001C17.3667 29.2834 16 28.9251 14.45 28.9251C12.9333 28.9251 11.575 29.2834 10.375 30.0001C9.175 30.7001 8.23333 31.6834 7.55 32.9501C6.86667 34.2001 6.525 35.6334 6.525 37.2501C6.525 38.8334 6.85833 40.2501 7.525 41.5001C8.20833 42.7334 9.15 43.7084 10.35 44.4251C11.55 45.1251 12.9167 45.4751 14.45 45.4751Z" fill="#FFFCF8"/>
<path d="M38.3816 50.0001V24.4001H44.6066V50.0001H38.3816Z" fill="#FFFCF8"/>
<path d="M61.6258 50.8001C59.4758 50.8001 57.5591 50.4001 55.8758 49.6001C54.2091 48.7834 52.8508 47.6168 51.8008 46.1001L54.5508 42.0501C55.5341 43.3501 56.6258 44.3584 57.8258 45.0751C59.0424 45.7918 60.3008 46.1501 61.6008 46.1501C62.4008 46.1501 63.1091 46.0084 63.7258 45.7251C64.3424 45.4251 64.8341 45.0001 65.2008 44.4501C65.5674 43.8834 65.7508 43.2168 65.7508 42.4501C65.7508 41.6501 65.5424 41.0251 65.1258 40.5751C64.7091 40.1251 64.0841 39.7168 63.2508 39.3501C62.4174 38.9834 61.3674 38.5501 60.1008 38.0501C59.0341 37.6001 58.0174 37.1001 57.0508 36.5501C56.0841 36.0001 55.2841 35.3084 54.6508 34.4751C54.0341 33.6251 53.7258 32.5501 53.7258 31.2501C53.7258 29.7668 54.1341 28.4501 54.9508 27.3001C55.7841 26.1501 56.9174 25.2501 58.3508 24.6001C59.8008 23.9501 61.4508 23.6251 63.3008 23.6251C64.6341 23.6251 65.9758 23.8668 67.3258 24.3501C68.6758 24.8168 70.0258 25.5001 71.3758 26.4001L69.1258 30.3251C67.1758 28.7084 65.2508 27.9001 63.3508 27.9001C62.2341 27.9001 61.3341 28.1668 60.6508 28.7001C59.9841 29.2334 59.6508 29.9168 59.6508 30.7501C59.6508 31.4334 59.9424 32.0168 60.5258 32.5001C61.1091 32.9834 61.8341 33.4084 62.7008 33.7751C63.5674 34.1418 64.4341 34.4918 65.3008 34.8251C66.6674 35.3251 67.8674 35.8584 68.9008 36.4251C69.9341 36.9918 70.7424 37.7251 71.3258 38.6251C71.9091 39.5251 72.2008 40.7251 72.2008 42.2251C72.2008 44.0251 71.7674 45.5668 70.9008 46.8501C70.0508 48.1334 68.8341 49.1168 67.2508 49.8001C65.6674 50.4668 63.7924 50.8001 61.6258 50.8001Z" fill="#FFFCF8"/>
<path d="M92.1188 50.8001C90.1854 50.8001 88.3604 50.4584 86.6438 49.7751C84.9438 49.0751 83.4438 48.1084 82.1438 46.8751C80.8438 45.6418 79.8187 44.2001 79.0687 42.5501C78.3354 40.9001 77.9688 39.1168 77.9688 37.2001C77.9688 35.3501 78.3188 33.6084 79.0188 31.9751C79.7354 30.3251 80.7271 28.8751 81.9938 27.6251C83.2771 26.3751 84.7771 25.3918 86.4938 24.6751C88.2271 23.9584 90.0938 23.6001 92.0938 23.6001C93.7604 23.6001 95.3521 23.8418 96.8688 24.3251C98.4021 24.8084 99.6688 25.4418 100.669 26.2251L98.4437 30.4251C96.9771 29.3084 95.1688 28.7501 93.0188 28.7501C91.2521 28.7501 89.7271 29.1418 88.4438 29.9251C87.1604 30.6918 86.1771 31.7251 85.4938 33.0251C84.8104 34.3084 84.4688 35.7001 84.4688 37.2001C84.4688 38.7834 84.8271 40.2168 85.5438 41.5001C86.2604 42.7668 87.2688 43.7751 88.5688 44.5251C89.8688 45.2751 91.3688 45.6501 93.0688 45.6501C94.1188 45.6501 95.1021 45.5001 96.0188 45.2001C96.9521 44.9001 97.7521 44.4918 98.4188 43.9751L100.669 48.1751C99.6521 48.9418 98.3938 49.5668 96.8938 50.0501C95.3938 50.5501 93.8021 50.8001 92.1188 50.8001Z" fill="#FFFCF8"/>
<path d="M107.641 50.0001V24.4001H113.866V50.0001H107.641ZM110.766 19.1501C110.083 19.1501 109.449 18.9834 108.866 18.6501C108.299 18.3001 107.841 17.8418 107.491 17.2751C107.158 16.6918 106.991 16.0501 106.991 15.3501C106.991 14.6668 107.158 14.0418 107.491 13.4751C107.841 12.9084 108.299 12.4584 108.866 12.1251C109.449 11.7751 110.083 11.6001 110.766 11.6001C111.466 11.6001 112.091 11.7751 112.641 12.1251C113.208 12.4584 113.658 12.9084 113.991 13.4751C114.341 14.0418 114.516 14.6668 114.516 15.3501C114.516 16.0501 114.341 16.6918 113.991 17.2751C113.658 17.8418 113.208 18.3001 112.641 18.6501C112.091 18.9834 111.466 19.1501 110.766 19.1501Z" fill="#FFFCF8"/>
<path d="M131.785 50.8001C129.468 50.8001 127.66 50.0501 126.36 48.5501C125.077 47.0501 124.435 44.9418 124.435 42.2251V29.1251H121.31V24.4001H124.435V14.8251H130.66V24.4001H136.56V29.1251H130.66V41.8001C130.66 42.9168 130.885 43.7751 131.335 44.3751C131.785 44.9584 132.427 45.2501 133.26 45.2501C134.127 45.2501 134.918 44.9834 135.635 44.4501L137.21 49.4251C136.46 49.8584 135.602 50.1918 134.635 50.4251C133.668 50.6751 132.718 50.8001 131.785 50.8001Z" fill="#FFFCF8"/>
<path d="M156.843 50.8001C154.11 50.8001 151.66 50.2084 149.493 49.0251C147.343 47.8418 145.635 46.2251 144.368 44.1751C143.118 42.1251 142.493 39.8168 142.493 37.2501C142.493 35.3501 142.851 33.5751 143.568 31.9251C144.285 30.2751 145.276 28.8251 146.543 27.5751C147.81 26.3251 149.285 25.3501 150.968 24.6501C152.651 23.9501 154.468 23.6001 156.418 23.6001C159.085 23.6001 161.418 24.1501 163.418 25.2501C165.435 26.3501 167.001 27.8834 168.118 29.8501C169.251 31.8168 169.818 34.1084 169.818 36.7251C169.818 36.9418 169.81 37.1251 169.793 37.2751C169.776 37.4084 169.743 37.6418 169.693 37.9751H148.843C148.843 39.5251 149.193 40.8918 149.893 42.0751C150.593 43.2418 151.568 44.1584 152.818 44.8251C154.085 45.4751 155.535 45.8001 157.168 45.8001C158.718 45.8001 160.093 45.4918 161.293 44.8751C162.51 44.2418 163.61 43.2834 164.593 42.0001L169.118 44.3251C167.901 46.3584 166.21 47.9501 164.043 49.1001C161.893 50.2334 159.493 50.8001 156.843 50.8001ZM149.118 34.0751H163.643C163.426 32.9084 162.985 31.9001 162.318 31.0501C161.651 30.2001 160.81 29.5418 159.793 29.0751C158.776 28.5918 157.643 28.3501 156.393 28.3501C155.076 28.3501 153.901 28.5834 152.868 29.0501C151.835 29.5168 150.993 30.1751 150.343 31.0251C149.693 31.8751 149.285 32.8918 149.118 34.0751Z" fill="#FFFCF8"/>
<path d="M50.6216 9.25568C51.345 9.51897 51.5121 10.4666 50.9223 10.9614L40.3077 19.8681C39.718 20.363 38.8138 20.0339 38.6801 19.2757L36.274 5.62985C36.1403 4.87175 36.8774 4.25322 37.6008 4.51651L50.6216 9.25568Z" fill="url(#paint0_linear_5288_2906)"/>
<defs>
<linearGradient id="paint0_linear_5288_2906" x1="50.1406" y1="-2.1103" x2="52.5914" y2="24.0782" gradientUnits="userSpaceOnUse">
<stop stop-color="#F54785"/>
<stop offset="1" stop-color="#FF9900"/>
</linearGradient>
</defs>
</svg>
